{"title":"Diary.Of.A.Wimpy.Kid.Dog.Days.2012.DVDRip.x264.AAC-UNiQUE.","uid":7835503,"size":1536653944,"categoryP":"video","categoryS":"movies","magnet":"?xt=urn:btih:1f364558ea22b9dc147e74d47a73b6d6dedba45d&amp;dn=+Diary.Of.A.Wimpy.Kid.Dog.Days.2012.DVDRip.x264.AAC-UNiQUE.&amp;tr=udp%3A%2F%2Ftracker.openbittorrent.com%3A80&amp;tr=udp%3A%2F%2Fopen.demonii.com%3A1337&amp;tr=udp%3A%2F%2Ftracker.coppersurfer.tk%3A6969&amp;tr=udp%3A%2F%2Fexodus.desync.com%3A6969","seeders":2,"leechers":1,"uploader":"Acesn8s","files":-1,"time":1353177832,"description":" &lt;a href=&quot;http://www.shotpix.com/images/41184378375129481537.jpeg&quot; rel=&quot;nofollow&quot; target=&quot;_NEW&quot;&gt;http://www.shotpix.com/images/41184378375129481537.jpeg&lt;/a&gt;\n\nwhy be the same as everyone else when YOU can be UNiQUE\n\nDiary Of A Wimpy Kid Dog Days 2012 DVDRip x264 AAC-UNiQUE\n\nGeneral\nComplete name                            : Diary Of A Wimpy Kid Dog Days 2012 DVDRip x264 AAC-UNiQUE.mp4\nFormat                                   : MPEG-4\nFormat profile                           : Base Media\nCodec ID                                 : isom\nFile size                                : 1.42 GiB\nDuration                                 : 1h 30mn\nOverall bit rate mode                    : Variable\nOverall bit rate                         : 2 251 Kbps\nEncoded date                             : UTC 2012-11-17 16:05:54\n\nVideo\nID                                       : 1\nFormat                                   : AVC\nFormat/Info                              : Advanced Video Codec\nFormat profile                           : &lt;a class=&quot;__cf_email__&quot; href=&quot;/cdn-cgi/l/email-protection&quot; data-cfemail=&quot;da92b3bdb29a96eef4eb&quot;&gt;[email&amp;#160;protected]&lt;/a&gt;&lt;script cf-hash='f9e31' type=&quot;text/javascript&quot;&gt;\n/* &lt;![CDATA[ */!function(){try{var t=&quot;currentScript&quot;in document?document.currentScript:function(){for(var t=document.getElementsByTagName(&quot;script&quot;),e=t.length;e--;)if(t[e].getAttribute(&quot;cf-hash&quot;))return t[e]}();if(t&amp;&amp;t.previousSibling){var e,r,n,i,c=t.previousSibling,a=c.getAttribute(&quot;data-cfemail&quot;);if(a){for(e=&quot;&quot;,r=parseInt(a.substr(0,2),16),n=2;a.length-n;n+=2)i=parseInt(a.substr(n,2),16)^r,e+=String.fromCharCode(i);e=document.createTextNode(e),c.parentNode.replaceChild(e,c)}}}catch(u){}}();/* ]]&gt; */&lt;/script&gt;\nFormat settings, CABAC                   : Yes\nFormat settings, ReFrames                : 3 frames\nCodec ID                                 : avc1\nCodec ID/Info                            : Advanced Video Coding\nDuration                                 : 1h 30mn\nBit rate mode                            : Variable\nBit rate                                 : 1 913 Kbps\nMaximum bit rate                         : 40.0 Mbps\nWidth                                    : 720 pixels\nHeight                                   : 304 pixels\nDisplay aspect ratio                     : 2.35:1\nFrame rate mode                          : Constant\nFrame rate                               : 25.000 fps\nColor space                              : YUV\nChroma subsampling                       : 4:2:0\nBit depth                                : 8 bits\nScan type                                : Progressive\nBits/(Pixel*Frame)                       : 0.350\nStream size                              : 1.20 GiB (85%)\nWriting library                          : x264 core 129 r2230 1cffe9f\n\nAudio\nID                                       : 2\nFormat                                   : AAC\nFormat/Info                              : Advanced Audio Codec\nFormat profile                           : LC\nCodec ID                                 : 40\nDuration                                 : 1h 30mn\nBit rate mode                            : Variable\nBit rate                                 : 334 Kbps\nMaximum bit rate                         : 390 Kbps\nChannel(s)                               : 6 channels\nChannel positions                        : Front: L C R, Side: L R, LFE\nSampling rate                            : 48.0 KHz\nCompression mode                         : Lossy\nStream size                              : 215 MiB (15%)\nLanguage                                 : English\nEncoded date                             : UTC 2012-11-17 16:06:29\n\nSource                            : DVDR-DVDMANiA - Thanks!    \n\nStoryline\nSchool is out and Greg is ready for the days of summer, when all his plans go wrong. What on earth is he going to do all summer?\n\niMDB: http://www.imdb.com/title/tt2023453/\n &lt;a href=&quot;\nhttp://www.shotpix.com/images/50555955690426285462.png&quot; rel=&quot;nofollow&quot; target=&quot;_NEW&quot;&gt;\nhttp://www.shotpix.com/images/50555955690426285462.png&lt;/a&gt; &lt;a href=&quot;\nhttp://www.shotpix.com/images/07916453220653667607.png&quot; rel=&quot;nofollow&quot; target=&quot;_NEW&quot;&gt;\nhttp://www.shotpix.com/images/07916453220653667607.png&lt;/a&gt; &lt;a href=&quot;\nhttp://www.shotpix.com/images/10814627095981108083.png&quot; rel=&quot;nofollow&quot; target=&quot;_NEW&quot;&gt;\nhttp://www.shotpix.com/images/10814627095981108083.png&lt;/a&gt; &lt;a href=&quot;\nhttp://www.shotpix.com/images/21104424800562132061.png&quot; rel=&quot;nofollow&quot; target=&quot;_NEW&quot;&gt;\nhttp://www.shotpix.com/images/21104424800562132061.png&lt;/a&gt;","torrent":{"xt":"urn:btih:1f364558ea22b9dc147e74d47a73b6d6dedba45d","amp;dn":"+Diary.Of.A.Wimpy.Kid.Dog.Days.2012.DVDRip.x264.AAC-UNiQUE.","amp;tr":["udp%3A%2F%2Ftracker.openbittorrent.com%3A80","udp%3A%2F%2Fopen.demonii.com%3A1337","udp%3A%2F%2Ftracker.coppersurfer.tk%3A6969","udp%3A%2F%2Fexodus.desync.com%3A6969"],"infoHash":"1f364558ea22b9dc147e74d47a73b6d6dedba45d","infoHashBuffer":{"type":"Buffer","data":[31,54,69,88,234,34,185,220,20,126,116,212,122,115,182,214,222,219,164,93]},"announce":[],"urlList":[]}}